HIERARCHY
ROOT Hips
{
	OFFSET 0.00000 0.00000 0.00000
	CHANNELS 6 Xposition Yposition Zposition Zrotation Yrotation Xrotation 
	JOINT LHipJoint
	{
		OFFSET 0 0 0
		CHANNELS 3 Zrotation Yrotation Xrotation
		JOINT LeftUpLeg
		{
			OFFSET 1.55766 -1.60504 1.11378
			CHANNELS 3 Zrotation Yrotation Xrotation
			JOINT LeftLeg
			{
				OFFSET 2.29047 -6.29302 0.00000
				CHANNELS 3 Zrotation Yrotation Xrotation
				JOINT LeftFoot
				{
					OFFSET 2.52265 -6.93093 0.00000
					CHANNELS 3 Zrotation Yrotation Xrotation
					JOINT LeftToeBase
					{
						OFFSET 0.17633 -0.48446 2.02656
						CHANNELS 3 Zrotation Yrotation Xrotation
						End Site
						{
							OFFSET 0.00000 -0.00000 1.04989
						}
					}
				}
			}
		}
	}
	JOINT RHipJoint
	{
		OFFSET 0 0 0
		CHANNELS 3 Zrotation Yrotation Xrotation
		JOINT RightUpLeg
		{
			OFFSET -1.48599 -1.60504 1.11378
			CHANNELS 3 Zrotation Yrotation Xrotation
			JOINT RightLeg
			{
				OFFSET -2.27280 -6.24448 0.00000
				CHANNELS 3 Zrotation Yrotation Xrotation
				JOINT RightFoot
				{
					OFFSET -2.50834 -6.89161 0.00000
					CHANNELS 3 Zrotation Yrotation Xrotation
					JOINT RightToeBase
					{
						OFFSET -0.26967 -0.74090 2.08741
						CHANNELS 3 Zrotation Yrotation Xrotation
						End Site
						{
							OFFSET -0.00000 -0.00000 1.10614
						}
					}
				}
			}
		}
	}
	JOINT LowerBack
	{
		OFFSET 0 0 0
		CHANNELS 3 Zrotation Yrotation Xrotation
		JOINT Spine
		{
			OFFSET 0.06481 2.02437 -0.08472
			CHANNELS 3 Zrotation Yrotation Xrotation
			JOINT Spine1
			{
				OFFSET 0.00015 1.96711 0.18069
				CHANNELS 3 Zrotation Yrotation Xrotation
				JOINT Neck
				{
					OFFSET 0 0 0
					CHANNELS 3 Zrotation Yrotation Xrotation
					JOINT Neck1
					{
						OFFSET -0.29961 1.68293 -0.13041
						CHANNELS 3 Zrotation Yrotation Xrotation
						JOINT Head
						{
							OFFSET 0.59697 1.61501 -0.14669
							CHANNELS 3 Zrotation Yrotation Xrotation
							End Site
							{
								OFFSET 0.22973 1.74906 -0.10148
							}
						}
					}
				}
				JOINT LeftShoulder
				{
					OFFSET 0 0 0
					CHANNELS 3 Zrotation Yrotation Xrotation
					JOINT LeftArm
					{
						OFFSET 3.37968 1.02893 0.31147
						CHANNELS 3 Zrotation Yrotation Xrotation
						JOINT LeftForeArm
						{
							OFFSET 5.19807 -0.00000 -0.00000
							CHANNELS 3 Zrotation Yrotation Xrotation
							JOINT LeftHand
							{
								OFFSET 3.09370 -0.00000 -0.00000
								CHANNELS 3 Zrotation Yrotation Xrotation
								JOINT LeftFingerBase
								{
									OFFSET 0 0 0
									CHANNELS 3 Zrotation Yrotation Xrotation
									JOINT LeftHandIndex1
									{
										OFFSET 0.67263 -0.00000 -0.00000
										CHANNELS 3 Zrotation Yrotation Xrotation
										End Site
										{
											OFFSET 0.54229 -0.00000 -0.00000
										}
									}
								}
								JOINT LThumb
								{
									OFFSET 0 0 0
									CHANNELS 3 Zrotation Yrotation Xrotation
									End Site
									{
										OFFSET 0.55057 -0.00000 0.55057
									}
								}
							}
						}
					}
				}
				JOINT RightShoulder
				{
					OFFSET 0 0 0
					CHANNELS 3 Zrotation Yrotation Xrotation
					JOINT RightArm
					{
						OFFSET -3.38254 0.96355 -0.16120
						CHANNELS 3 Zrotation Yrotation Xrotation
						JOINT RightForeArm
						{
							OFFSET -5.45222 -0.00000 -0.00000
							CHANNELS 3 Zrotation Yrotation Xrotation
							JOINT RightHand
							{
								OFFSET -3.01284 -0.00000 -0.00000
								CHANNELS 3 Zrotation Yrotation Xrotation
								JOINT RightFingerBase
								{
									OFFSET 0 0 0
									CHANNELS 3 Zrotation Yrotation Xrotation
									JOINT RightHandIndex1
									{
										OFFSET -0.62230 -0.00000 -0.00000
										CHANNELS 3 Zrotation Yrotation Xrotation
										End Site
										{
											OFFSET -0.50171 -0.00000 -0.00000
										}
									}
								}
								JOINT RThumb
								{
									OFFSET 0 0 0
									CHANNELS 3 Zrotation Yrotation Xrotation
									End Site
									{
										OFFSET -0.50937 -0.00000 0.50937
									}
								}
							}
						}
					}
				}
			}
		}
	}
}
MOTION
Frames: 14
Frame Time: .0083333
8.0105 15.7112 26.6871 -162.2580 -79.8474 178.2710 0.0000 0.0000 0.0000 -18.7840 -4.2178 -35.5744 4.4364 12.7195 38.3274 1.0381 -8.2973 -18.2605 1.0920 -6.6410 -18.6560 0.0000 0.0000 0.0000 30.4512 -8.3359 -37.3638 -3.6873 -11.7322 34.7911 0.4667 25.4979 -14.8333 -0.0938 -1.9750 5.4365 8.5729 3.1231 -3.1300 -0.3758 3.9338 -8.4633 -5.2445 1.2528 -6.5606 -31.1322 -9.6787 8.5136 38.6715 -18.9773 0.5174 18.5112 -10.8242 6.3231 0.0000 0.0000 0.0000 -88.8896 23.5439 17.1038 23.5787 -34.7156 -7.4653 -0.0000 0.0000 -32.7803 5.0557 -3.4667 -0.3065 -7.1250 0.0000 -0.0000 -16.2421 26.4091 7.6135 0.0000 0.0000 0.0000 90.2021 -15.1161 7.8597 -16.0247 25.5541 -3.6566 0.0000 0.0000 19.1469 -10.8707 -2.0144 0.3868 7.1250 -0.0000 -0.0000 12.5688 -31.8635 4.1269
8.0078 15.7169 26.6921 -162.4770 -79.8949 178.4570 0.0000 0.0000 0.0000 -18.9036 -4.1202 -35.4919 4.4033 12.6785 38.1767 1.0226 -8.4633 -18.1414 1.0479 -6.5097 -18.2706 0.0000 0.0000 0.0000 30.3352 -8.2551 -37.2131 -3.6638 -11.6990 34.6754 0.4565 25.3659 -14.7929 -0.0965 -2.0029 5.5137 8.4682 3.1242 -3.2599 -0.3828 3.9191 -8.4533 -5.1858 1.2560 -6.4811 -31.1365 -9.6622 8.5752 38.6321 -18.9915 0.6081 18.4988 -10.8349 6.3357 -0.0000 -0.0000 0.0000 -88.8359 23.4050 18.1909 23.5078 -34.6394 -7.4249 -0.0000 0.0000 -31.4320 3.3337 -3.0139 -0.1755 -7.1250 0.0000 -0.0000 -17.5739 26.8288 8.1123 -0.0000 -0.0000 0.0000 90.4521 -15.1986 8.9036 -15.7582 25.1917 -3.5424 0.0000 0.0000 18.7233 -9.5094 -2.3802 0.3986 7.1250 -0.0000 -0.0000 13.6970 -32.1840 4.4069
8.0047 15.7224 26.6967 -162.6740 -79.9295 178.6220 0.0000 0.0000 0.0000 -19.0202 -3.9818 -35.4288 4.3722 12.6399 38.0351 1.0070 -8.6569 -18.0259 1.0081 -6.3885 -17.9160 0.0000 0.0000 0.0000 30.2357 -8.1912 -37.0714 -3.6407 -11.6662 34.5612 0.4502 25.2660 -14.7523 -0.0987 -2.0261 5.5779 8.3602 3.1303 -3.3925 -0.3841 3.9114 -8.4432 -5.1191 1.2630 -6.3994 -31.1436 -9.6475 8.6357 38.5880 -19.0075 0.7002 18.4838 -10.8459 6.3492 -0.0000 -0.0000 0.0000 -88.7251 23.2667 19.1774 23.4441 -34.5709 -7.3888 -0.0000 0.0000 -29.8310 1.5175 -2.7457 -0.0727 -7.1250 0.0000 -0.0000 -18.9474 27.0585 8.7055 -0.0000 -0.0000 0.0000 90.6795 -15.3274 10.0701 -15.5701 24.9343 -3.4627 0.0000 0.0000 18.2192 -8.2249 -2.7329 0.3949 7.1250 -0.0000 -0.0000 14.7669 -32.4867 4.6596
8.0014 15.7278 26.7011 -162.8570 -79.9537 178.7790 0.0000 0.0000 0.0000 -19.1366 -3.8072 -35.3875 4.3434 12.6039 37.9034 0.9913 -8.8802 -17.9157 0.9713 -6.2743 -17.5824 0.0000 0.0000 0.0000 30.1493 -8.1405 -36.9411 -3.6182 -11.6342 34.4499 0.4459 25.1888 -14.7170 -0.1000 -2.0394 5.6147 8.2481 3.1376 -3.5305 -0.3773 3.9053 -8.4322 -5.0413 1.2714 -6.3143 -31.1564 -9.6336 8.6888 38.5369 -19.0220 0.7958 18.4658 -10.8549 6.3639 -0.0000 -0.0000 0.0000 -88.5763 23.1198 20.0493 23.3775 -34.4990 -7.3510 -0.0000 0.0000 -28.1322 -0.0800 -2.6775 0.0037 -7.1250 0.0000 -0.0000 -20.1224 27.0932 9.2944 -0.0000 -0.0000 0.0000 90.8762 -15.4962 11.3633 -15.4571 24.7790 -3.4152 0.0000 0.0000 17.6251 -7.0030 -3.0609 0.3758 7.1250 -0.0000 -0.0000 15.7867 -32.7606 4.8944
7.9979 15.7328 26.7051 -163.0130 -79.9673 178.9130 0.0000 0.0000 0.0000 -19.2479 -3.5966 -35.3699 4.3173 12.5710 37.7832 0.9745 -9.1526 -17.8035 0.9275 -6.1353 -17.1774 0.0000 0.0000 0.0000 30.0733 -8.0810 -36.8142 -3.5964 -11.6031 34.3420 0.4398 25.1104 -14.6940 -0.1003 -2.0425 5.6230 8.1295 3.1422 -3.6761 -0.3570 3.8954 -8.4190 -4.9451 1.2788 -6.2242 -31.1809 -9.6196 8.7244 38.4761 -19.0318 0.8996 18.4449 -10.8591 6.3823 0.0000 0.0000 0.0000 -88.3801 22.9777 20.9112 23.3237 -34.4408 -7.3205 -0.0000 0.0000 -26.6286 -1.1157 -2.7240 0.0530 -7.1250 0.0000 -0.0000 -20.8633 27.0274 9.7180 0.0000 0.0000 0.0000 91.0343 -15.6930 12.7780 -15.4104 24.7147 -3.3957 0.0000 0.0000 16.9460 -5.8480 -3.3703 0.3450 7.1250 -0.0000 -0.0000 16.7531 -33.0134 5.1098
7.9941 15.7376 26.7086 -163.1330 -79.9720 179.0220 0.0000 0.0000 0.0000 -19.3524 -3.3545 -35.3794 4.2937 12.5413 37.6749 0.9562 -9.4684 -17.6896 0.8790 -5.9771 -16.7181 0.0000 0.0000 0.0000 30.0098 -8.0142 -36.6963 -3.5759 -11.5735 34.2396 0.4331 25.0366 -14.6793 -0.1001 -2.0399 5.6159 8.0109 3.1475 -3.8326 -0.3319 3.8858 -8.4063 -4.8434 1.2865 -6.1288 -31.2036 -9.6037 8.7554 38.4111 -19.0360 1.0045 18.4223 -10.8599 6.3987 -0.0000 0.0000 0.0000 -88.1298 22.8365 21.8002 23.2743 -34.3874 -7.2926 -0.0000 0.0000 -25.5061 -1.4031 -2.7778 0.0680 -7.1250 0.0000 -0.0000 -21.0606 26.9706 9.8534 -0.0000 0.0000 0.0000 91.1717 -15.9154 14.2870 -15.4247 24.7344 -3.4016 0.0000 0.0000 16.1883 -4.7572 -3.6670 0.3050 7.1250 -0.0000 -0.0000 17.6688 -33.2516 5.3059
7.9901 15.7419 26.7117 -163.2380 -79.9703 179.1260 0.0000 0.0000 0.0000 -19.4536 -3.0873 -35.4157 4.2729 12.5150 37.5789 0.9359 -9.8294 -17.5713 0.8237 -5.7907 -16.1782 0.0000 0.0000 0.0000 29.9521 -7.9323 -36.5866 -3.5565 -11.5457 34.1430 0.4242 24.9540 -14.6732 -0.0995 -2.0342 5.6002 7.8871 3.1529 -4.0018 -0.3031 3.8752 -8.3956 -4.7344 1.2940 -6.0292 -31.2248 -9.5846 8.7847 38.3423 -19.0337 1.1102 18.3987 -10.8571 6.4121 -0.0000 -0.0000 0.0000 -87.8181 22.7109 22.7969 23.2420 -34.3524 -7.2744 -0.0000 0.0000 -24.9204 -0.9288 -2.7374 0.0444 -7.1250 0.0000 -0.0000 -20.7261 27.0191 9.6497 -0.0000 -0.0000 0.0000 91.2874 -16.1572 15.8769 -15.4921 24.8272 -3.4299 0.0000 0.0000 15.3682 -3.7582 -3.9544 0.2595 7.1250 -0.0000 -0.0000 18.5124 -33.4803 5.4749
7.9857 15.7458 26.7143 -163.3380 -79.9635 179.2340 0.0000 0.0000 0.0000 -19.5539 -2.7943 -35.4784 4.2546 12.4917 37.4943 0.9130 -10.2339 -17.4445 0.7631 -5.5785 -15.5662 0.0000 0.0000 0.0000 29.8975 -7.8325 -36.4838 -3.5387 -11.5198 34.0539 0.4122 24.8562 -14.6780 -0.0986 -2.0247 5.5740 7.7593 3.1582 -4.1811 -0.2743 3.8639 -8.3883 -4.6228 1.3009 -5.9279 -31.2376 -9.5612 8.8152 38.2694 -19.0230 1.2153 18.3732 -10.8499 6.4199 -0.0000 -0.0000 0.0000 -87.4483 22.6013 23.9104 23.2207 -34.3293 -7.2624 -0.0000 0.0000 -24.8492 0.1200 -2.6288 -0.0055 -7.1250 0.0000 -0.0000 -19.9856 27.1429 9.1982 -0.0000 -0.0000 0.0000 91.3820 -16.4130 17.5542 -15.6037 24.9804 -3.4769 0.0000 0.0000 14.4897 -2.9665 -4.2661 0.2209 7.1250 -0.0000 -0.0000 19.2008 -33.7380 5.5721
7.9812 15.7492 26.7164 -163.3870 -79.9537 179.2990 0.0000 0.0000 0.0000 -19.6440 -2.4840 -35.5639 4.2388 12.4716 37.4212 0.8876 -10.6686 -17.3122 0.7004 -5.3494 -14.9079 0.0000 0.0000 0.0000 29.8498 -7.7009 -36.3793 -3.5222 -11.4960 33.9714 0.3931 24.7236 -14.7050 -0.0964 -2.0019 5.5109 7.6407 3.1652 -4.3654 -0.2477 3.8544 -8.3865 -4.5186 1.3075 -5.8291 -31.2425 -9.5340 8.8522 38.1959 -19.0082 1.3214 18.3474 -10.8413 6.4239 0.0000 -0.0000 0.0000 -87.0277 22.5086 25.1115 23.1990 -34.3057 -7.2501 -0.0000 0.0000 -25.1493 1.4517 -2.5525 -0.0647 -7.1250 0.0000 -0.0000 -19.0275 27.2401 8.6597 0.0000 -0.0000 0.0000 91.4536 -16.6787 19.2960 -15.7554 25.1879 -3.5412 0.0000 0.0000 13.5897 -2.4245 -4.6184 0.1953 7.1250 -0.0000 -0.0000 19.7053 -34.0433 5.5792
7.9766 15.7522 26.7183 -163.4570 -79.9448 179.3900 0.0000 0.0000 0.0000 -19.7382 -2.1662 -35.6643 4.2252 12.4542 37.3584 0.8597 -11.1265 -17.1731 0.6368 -5.1057 -14.2104 0.0000 0.0000 0.0000 29.7934 -7.5443 -36.2739 -3.5071 -11.4740 33.8955 0.3670 24.5561 -14.7560 -0.0926 -1.9621 5.4008 7.5206 3.1720 -4.5520 -0.2251 3.8447 -8.3895 -4.4180 1.3134 -5.7341 -31.2427 -9.5023 8.8965 38.1211 -18.9884 1.4288 18.3220 -10.8310 6.4241 -0.0000 -0.0000 0.0000 -86.5673 22.4381 26.3819 23.1784 -34.2834 -7.2386 -0.0000 0.0000 -25.6757 2.7704 -2.5912 -0.1253 -7.1250 0.0000 -0.0000 -18.0534 27.2245 8.1777 -0.0000 -0.0000 0.0000 91.4952 -16.9427 21.0400 -15.9411 25.4407 -3.6206 0.0000 0.0000 12.7296 -2.2774 -5.0923 0.2022 7.1250 -0.0000 -0.0000 19.9318 -34.4816 5.4246
7.9719 15.7548 26.7203 -163.4860 -79.9398 179.4410 0.0000 0.0000 0.0000 -19.8249 -1.8467 -35.7730 4.2140 12.4398 37.3061 0.8291 -11.6011 -17.0270 0.5737 -4.8505 -13.4826 0.0000 0.0000 0.0000 29.7433 -7.3836 -36.1697 -3.4933 -11.4537 33.8259 0.3365 24.3712 -14.8256 -0.0876 -1.9087 5.2535 7.4095 3.1764 -4.7352 -0.2007 3.8324 -8.3957 -4.3209 1.3169 -5.6448 -31.2414 -9.4672 8.9430 38.0425 -18.9651 1.5427 18.2957 -10.8190 6.4234 0.0000 0.0000 0.0000 -86.1025 22.3773 27.6232 23.1454 -34.2475 -7.2200 -0.0000 0.0000 -26.2489 3.8264 -2.7998 -0.1872 -7.1250 0.0000 -0.0000 -17.2433 27.0392 7.8557 0.0000 0.0000 0.0000 91.4962 -17.1867 22.6952 -16.1453 25.7173 -3.7088 0.0000 0.0000 11.9877 -2.4780 -5.7071 0.2466 7.1250 -0.0000 -0.0000 19.9210 -35.0711 5.1177
7.9672 15.7569 26.7225 -163.4810 -79.9417 179.4560 0.0000 0.0000 0.0000 -19.9087 -1.5211 -35.8899 4.2047 12.4279 37.2629 0.7959 -12.0915 -16.8746 0.5150 -4.5996 -12.7700 0.0000 0.0000 0.0000 29.6989 -7.2277 -36.0704 -3.4809 -11.4356 33.7635 0.3043 24.1824 -14.9076 -0.0819 -1.8455 5.0788 7.3091 3.1754 -4.9122 -0.1732 3.8138 -8.4044 -4.2270 1.3162 -5.5623 -31.2668 -9.4204 8.9848 37.9754 -18.9334 1.6745 18.2853 -10.8041 6.4307 0.0000 0.0000 0.0000 -85.6637 22.3228 28.7790 23.1038 -34.2021 -7.1966 -0.0000 0.0000 -26.7869 4.5187 -3.1098 -0.2456 -7.1250 0.0000 -0.0000 -16.6875 26.7488 7.7002 0.0000 0.0000 0.0000 91.4579 -17.3901 24.1332 -16.3478 25.9899 -3.7971 0.0000 0.0000 11.4602 -2.9642 -6.4543 0.3335 7.1250 -0.0000 -0.0000 19.7179 -35.8032 4.6869
7.9628 15.7586 26.7251 -163.4480 -79.9526 179.4410 0.0000 0.0000 0.0000 -19.9912 -1.1985 -36.0097 4.1972 12.4182 37.2281 0.7603 -12.5855 -16.7165 0.4615 -4.3576 -12.0850 0.0000 0.0000 0.0000 29.6603 -7.0925 -35.9818 -3.4701 -11.4197 33.7089 0.2743 24.0104 -14.9886 -0.0764 -1.7830 4.9062 7.2165 3.1665 -5.0795 -0.1413 3.7860 -8.4159 -4.1339 1.3100 -5.4895 -31.2938 -9.3723 9.0191 37.8988 -18.9005 1.8225 18.2706 -10.7875 6.4421 -0.0000 -0.0000 0.0000 -85.2506 22.2891 29.8697 23.0796 -34.1757 -7.1829 -0.0000 0.0000 -27.3250 4.8363 -3.4054 -0.2880 -7.1250 0.0000 -0.0000 -16.4121 26.4668 7.6764 -0.0000 -0.0000 0.0000 91.3796 -17.5363 25.2621 -16.5256 26.2281 -3.8753 0.0000 0.0000 11.1911 -3.5801 -7.2927 0.4550 7.1250 -0.0000 -0.0000 19.4342 -36.6328 4.1962
7.9585 15.7601 26.7282 -163.3830 -79.9725 179.3920 0.0000 0.0000 0.0000 -20.0720 -0.8778 -36.1347 4.1911 12.4105 37.2001 0.7227 -13.0809 -16.5545 0.4141 -4.1308 -11.4448 0.0000 0.0000 0.0000 29.6342 -6.9990 -35.9166 -3.4611 -11.4064 33.6632 0.2522 23.8855 -15.0514 -0.0724 -1.7363 4.7773 7.1336 3.1478 -5.2392 -0.1058 3.7459 -8.4295 -4.0432 1.2966 -5.4246 -31.3204 -9.3231 9.0392 37.8144 -18.8665 1.9916 18.2519 -10.7688 6.4606 -0.0000 0.0000 0.0000 -84.8726 22.2715 30.8680 23.0771 -34.1731 -7.1816 -0.0000 0.0000 -27.8707 4.7987 -3.5987 -0.3019 -7.1250 0.0000 -0.0000 -16.4133 26.2805 7.7521 -0.0000 0.0000 0.0000 91.2692 -17.6139 26.0429 -16.6579 26.4045 -3.9340 0.0000 0.0000 11.1645 -4.2235 -8.1579 0.6004 7.1250 -0.0000 -0.0000 19.1350 -37.4941 3.7003
